<svg xmlns="http://www.w3.org/2000/svg" viewBox="0 0 72.06 71.04"><defs><style>.cls-1{fill:#fff;}</style></defs><g id="Layer_2" data-name="Layer 2"><g id="Layer_1-2" data-name="Layer 1"><path class="cls-1" d="M70.26,6.18Q63.54,13,56.79,19.88,41.43,35.47,26.06,51.06q-9.36,9.51-18.69,19a2.19,2.19,0,0,1-3.56,0C3.1,69.44,2.42,68.72,1.74,68a2.07,2.07,0,0,1-.65-1.69,2.18,2.18,0,0,1,.84-1.73L22.26,44Q32.79,33.33,43.33,22.7l17.79-18C62.38,3.41,63.6,2.1,64.87.85a2.21,2.21,0,0,1,3.49,0c.66.63,1.31,1.28,1.94,1.94A2.1,2.1,0,0,1,70.26,6.18Z"/><path class="cls-1" d="M39.56,20c-.25.28-.51.55-.77.82-1.14,1.23-1.75,1.34-3.28.58L10.6,9C9.49,8.48,8.38,8,7,7.28c2.31,3.93,4.46,7.56,6.6,11.19q4.5,7.62,9,15.23a3.81,3.81,0,0,1-1.68,5.2c-1.1.53-2.06.13-2.86-1.22Q14,30.83,9.91,24,5.28,16.13.65,8.3C-.29,6.71-.25,6.16,1,4.77,2.11,3.53,3.25,2.32,4.36,1.08A2.19,2.19,0,0,1,7.26.53L38.9,16.42C40.54,17.25,40.77,18.57,39.56,20Z"/><path class="cls-1" d="M71,66.41c-1.24,1.18-2.51,2.31-3.73,3.5a2.2,2.2,0,0,1-2.92.4q-15.22-8.53-30.45-17c-1.63-.91-1.73-2.44-.31-3.62.32-.27.68-.48,1-.76a2.43,2.43,0,0,1,3.18-.26C43.87,52.06,50,55.45,56.06,58.85l8.42,4.7c.19-.55-.09-.8-.24-1.08l-14-26.67c-1-1.89.68-4.84,2.82-4.93,1.12-.05,1.69.69,2.16,1.59q5.63,10.6,11.28,21.2,2.52,4.73,5,9.45C72.33,64.59,72.24,65.26,71,66.41Z"/></g></g></svg>