<svg xmlns="http://www.w3.org/2000/svg" viewBox="0 0 490.47 122.71"><defs><style>.cls-1{fill:#fff;}</style></defs><g id="Layer_2" data-name="Layer 2"><g id="Layer_1-2" data-name="Layer 1"><path class="cls-1" d="M238.41,53.1q0,16.45,0,32.92a17.47,17.47,0,0,1-.49,4.2,8.43,8.43,0,0,1-8.74,6.69A8.52,8.52,0,0,1,220.68,90a20.63,20.63,0,0,1-.48-4.57c0-11.31,0-22.62-.08-33.92a21.15,21.15,0,0,0-.58-5.07c-1.45-5.74-5.7-7.78-11.37-6.5-4.26,1-9.14,4.64-10,12a89,89,0,0,0-.64,10.31c0,8.36,0,16.71-.09,25.07-.05,3.57-1.24,6.76-4.67,8.51-4.64,2.37-12,1.06-13.08-7.13a31,31,0,0,1-.22-4q0-16.2-.08-32.42a35.7,35.7,0,0,0-.44-5c-.79-5.46-3.58-7.82-9.13-7.8-6.33,0-9.93,2.69-11.75,8.72A34.8,34.8,0,0,0,157.2,52a52.3,52.3,0,0,0-.79,9.67q0,12.23,0,24.45a16.92,16.92,0,0,1-.51,4.19,8.41,8.41,0,0,1-8.9,6.64,8.64,8.64,0,0,1-8.29-7.28,23.45,23.45,0,0,1-.34-4.34q0-24.32,0-48.64a17,17,0,0,1,.5-4.81c1.26-4.25,4.45-6.27,9.2-5.76A8,8,0,0,1,155,33.64c0,.82,0,1.64,0,2.47l.3.14A31.08,31.08,0,0,1,162.33,30c7.95-4.74,16.23-5.32,24.7-1.58a17.09,17.09,0,0,1,7.6,7c.67,1.09,1,.9,1.71.08,4-4.66,8.89-8.08,15.09-9,7.28-1.1,14.22-.26,20.17,4.58,3.94,3.2,5.72,7.53,6.31,12.45A80.52,80.52,0,0,1,238.41,53.1Z"/><path class="cls-1" d="M312.33,41.56a28,28,0,0,0-30.41-15c-6.56,1.2-11.51,4.94-15.8,9.77-.34.38-.58.88-1.19,1.12a17.51,17.51,0,0,0-.8-6.48c-1.36-3.43-4.31-5.15-8.5-4.94-3.41.16-5.84,2.23-6.8,5.75a16,16,0,0,0-.47,4.19v75.31a22.26,22.26,0,0,0,1,7.24,5.74,5.74,0,0,0,5.14,4.09,15.73,15.73,0,0,0,3,.06,6.78,6.78,0,0,0,6.18-4.32,14.21,14.21,0,0,0,1.18-5.81c.05-6.65,0-13.3.05-20V85.23l1.93,2.21c6,7,13.52,10.23,22.78,9.34A26.86,26.86,0,0,0,310.54,84.2c4.08-6.25,5.79-13.26,6.06-20.65C316.89,55.89,315.89,48.49,312.33,41.56ZM296,75c-3,5.37-7.42,8.51-13.71,8.36-5.73-.14-10-3-13.06-7.75A21.76,21.76,0,0,1,266,66a33.75,33.75,0,0,1,1.65-16.19c2.72-7,8.86-11.1,16.2-10.7,5.23.29,9,3.11,11.7,7.48s3.49,9.44,3.53,14.55C299.06,66,298.36,70.69,296,75Z"/><path class="cls-1" d="M130.58,85.71a44.16,44.16,0,0,1-2.42-15.41c.13-2.74,0-5.49,0-8.23,0-4.37,0-8.73,0-13.09a39.79,39.79,0,0,0-.44-4.21c-1.2-9.86-6.48-15.58-16.22-17.69a66.22,66.22,0,0,0-17.26-1.15A39,39,0,0,0,78.7,29.6c-4.26,2.09-7.81,4.91-9.89,9.3a15.24,15.24,0,0,0-1.33,4.89c-.58,5.36,4.1,8.16,8.42,7.7A4.93,4.93,0,0,0,80,49c.71-1.22,1.56-2.36,2.34-3.53,2.23-3.37,5.05-6,9.13-6.85a30.89,30.89,0,0,1,11.42-.25A8.24,8.24,0,0,1,110,44.79a29.74,29.74,0,0,1,1,5.38c.07.84-.13,1.21-1,1.47-6.44,1.84-13,3.29-19.51,4.67-4.34.92-8.77,1.53-13,3-8.32,2.92-13.4,9.76-13.16,18.15.22,8.07,4.25,13.84,11.53,17.23,6.11,2.84,12.52,2.69,19,1.36,6.08-1.25,11.26-4.41,16.19-8,1.25-.91,1.23-.92,2.11.43a32.08,32.08,0,0,0,5,6.2c2.27,2.09,4.88,2.88,7.82,1.75,2.78-1.06,4.91-2.84,5.44-6A10.18,10.18,0,0,0,130.58,85.71Zm-20.73-11c-1.51,4.72-5,7.49-9.4,9.3A21.81,21.81,0,0,1,93,85.45c-4.41-.08-8-1.53-10.14-5.51A8.3,8.3,0,0,1,85.4,69.21c2.5-1.67,5.28-2.32,8.11-3,5.62-1.31,11.32-2.26,16.8-4.11.62-.21.85,0,.83.6C111,66.73,111.09,70.77,109.85,74.67Z"/><path class="cls-1" d="M368.69,65.74h17.49c5.62,0,11.24.05,16.86,0a22.54,22.54,0,0,0,8.65-1.57A6.48,6.48,0,0,0,415.53,60a17,17,0,0,0,.61-6.27A29.19,29.19,0,0,0,396.6,27.83,39.58,39.58,0,0,0,377,26.39c-11.38,1.85-19.75,7.79-24.2,18.62a43.63,43.63,0,0,0-1.77,27.38c2.68,11.16,9.46,18.85,20.48,22.52a45,45,0,0,0,17.61,1.84,35.16,35.16,0,0,0,16.91-5.42c4-2.61,7.32-5.9,8.79-10.64,1-3,0-5.8-2.37-7.06a7.2,7.2,0,0,0-7.88,1c-1.44,1.33-2.85,2.68-4.32,4-3.65,3.18-7.54,5.9-12.54,6.48-5.94.7-11.18-.67-15.22-5.3-3.31-3.8-4.6-8.38-4.86-13.31C367.6,65.55,368.18,65.74,368.69,65.74Zm-.91-11.09c.7-4.73,2-9.13,5.49-12.69,6-6.18,20.51-5.94,24.56,6.31a38.14,38.14,0,0,1,1.4,6.68c.14,1-.49.84-1.06.84H383.43c-4.87,0-9.74,0-14.61,0C367.87,55.82,367.64,55.63,367.78,54.65Z"/><path class="cls-1" d="M59.88,75.5c-.33,5.42-2.08,10.15-6,13.94a22.29,22.29,0,0,1-9.47,5.35c-9.86,2.84-19.77,3.11-29.57-.14C9.67,93,5.16,90.18,2.21,85.39A13.35,13.35,0,0,1,0,77.85a7,7,0,0,1,6.76-6.66,6.76,6.76,0,0,1,6.49,3.37c1,1.53,1.87,3.13,3,4.6a15.7,15.7,0,0,0,12,6.27,19.77,19.77,0,0,0,8.86-.94A14.24,14.24,0,0,0,40,82.84c4.67-3.29,3-9.61-.66-11.63a46,46,0,0,0-11.25-3.95c-5.92-1.52-11.86-3-17.28-6-4.48-2.41-8.16-5.65-9.5-10.82-1.93-7.41,1.18-15,7.92-19.58,5.13-3.46,10.9-4.77,17-4.89h2a40.55,40.55,0,0,1,18.19,3.61c3.74,1.79,7,4.23,8.94,8a9.05,9.05,0,0,1,1.15,4.29,6.67,6.67,0,0,1-6.41,6.91,8.53,8.53,0,0,1-7.74-3.13c-1-1.13-2-2.25-2.89-3.43-5.06-6.6-14.7-6-19.17-3.27-2,1.24-3.44,2.84-3.33,5.43a5.48,5.48,0,0,0,2.52,4.35c2.91,2.1,6.35,2.84,9.71,3.76,5.48,1.52,11.1,2.54,16.39,4.71a31.8,31.8,0,0,1,8.6,5A15.25,15.25,0,0,1,59.88,75.5Z"/><path class="cls-1" d="M341.6,11.16q0,37.47,0,74.94a16.93,16.93,0,0,1-.46,4.19,8.29,8.29,0,0,1-8.86,6.62,8.4,8.4,0,0,1-7.93-7.34,24,24,0,0,1-.28-4V48.33h0c0-13,0-25.94,0-38.9a9.88,9.88,0,0,1,2.29-6.7c2.5-2.86,5.76-3.19,9.15-2.27s5.15,3.58,5.76,7A21,21,0,0,1,341.6,11.16Z"/><path class="cls-1" d="M488.68,31.86q-6.72,6.86-13.47,13.7-15.36,15.59-30.73,31.18-9.36,9.51-18.69,19.05a2.19,2.19,0,0,1-3.56,0c-.71-.71-1.39-1.43-2.07-2.16a2.07,2.07,0,0,1-.65-1.69,2.18,2.18,0,0,1,.84-1.73l20.33-20.59Q451.21,59,461.75,48.38l17.79-18c1.26-1.27,2.48-2.58,3.75-3.83a2.21,2.21,0,0,1,3.49,0c.66.63,1.31,1.28,1.94,1.94A2.1,2.1,0,0,1,488.68,31.86Z"/><path class="cls-1" d="M458,45.65c-.25.28-.51.55-.77.82-1.14,1.23-1.75,1.34-3.28.58L429,34.71c-1.11-.55-2.22-1.07-3.62-1.75,2.31,3.93,4.46,7.56,6.6,11.19q4.5,7.62,9,15.23a3.81,3.81,0,0,1-1.68,5.2c-1.1.53-2.06.13-2.86-1.22q-4.08-6.86-8.13-13.72Q423.7,41.81,419.07,34c-.94-1.59-.9-2.14.35-3.53,1.11-1.24,2.25-2.45,3.36-3.69a2.19,2.19,0,0,1,2.9-.55L457.32,42.1C459,42.93,459.19,44.25,458,45.65Z"/><path class="cls-1" d="M489.46,92.09c-1.24,1.18-2.51,2.31-3.73,3.5a2.2,2.2,0,0,1-2.92.4q-15.22-8.53-30.45-17c-1.63-.91-1.73-2.44-.31-3.62.32-.27.68-.48,1-.76a2.43,2.43,0,0,1,3.18-.26c6.07,3.43,12.17,6.82,18.26,10.22l8.42,4.7c.19-.55-.09-.8-.24-1.08l-14-26.67c-1-1.89.68-4.84,2.82-4.93,1.12,0,1.69.69,2.16,1.59q5.63,10.6,11.28,21.2,2.52,4.72,5,9.45C490.75,90.27,490.66,90.94,489.46,92.09Z"/></g></g></svg>